Coordinates
version=1
nRows=7
nColumns=40
inDegrees=yes

Units are S.I. units (second, meters, Newtons, ...)
Angles are in degrees.

endheader
time	pelvis_tilt	pelvis_list	pelvis_rotation	pelvis_tx	pelvis_ty	pelvis_tz	hip_flexion_r	hip_adduction_r	hip_rotation_r	knee_angle_r	knee_angle_r_beta	ankle_angle_r	subtalar_angle_r	mtp_angle_r	hip_flexion_l	hip_adduction_l	hip_rotation_l	knee_angle_l	knee_angle_l_beta	ankle_angle_l	subtalar_angle_l	mtp_angle_l	lumbar_extension	lumbar_bending	lumbar_rotation	arm_flex_r	arm_add_r	arm_rot_r	elbow_flex_r	pro_sup_r	wrist_flex_r	wrist_dev_r	arm_flex_l	arm_add_l	arm_rot_l	elbow_flex_l	pro_sup_l	wrist_flex_l	wrist_dev_l
      9.60750000	     -4.40260085	     -2.98279709	     -1.12605015	      0.77091130	      0.92022631	      0.47640061	     24.19106694	      0.18313836	    -10.03619833	     23.06134659	     23.06134659	      4.96688181	     -8.90767217	     -1.84431791	      0.75362383	     -6.53584728	     -9.07783258	     26.79746384	     26.79746384	     17.30220329	     -7.93611169	     -7.88500694	     -8.36439847	      5.90259745	     -0.46968512	     -4.43500523	    -13.22164773	     -6.65019268	     42.53229419	     45.73132878	      0.00000000	      0.00000000	     13.82597564	    -14.86398103	    -13.26067513	     53.86762614	     47.03197267	      0.00000000	      0.00000000
      9.62057143	     -4.23486361	     -3.10935103	     -0.68596453	      0.77181580	      0.92113643	      0.47902645	     23.41131019	      0.37719942	    -10.42425701	     23.00346132	     23.00346132	      5.48810889	     -8.91507663	     -2.04636584	      2.31650408	     -7.24213678	     -8.15270516	     30.68082084	     30.68082084	     16.06187485	     -9.43086043	     -8.57441349	     -8.49141039	      6.03127512	     -0.71667261	     -3.11003611	    -13.45014789	     -6.85807897	     43.59911380	     45.70920560	      0.00000000	      0.00000000	     12.63046095	    -14.49776342	    -12.93667590	     52.47731601	     46.97747173	      0.00000000	      0.00000000
      9.63364286	     -4.18259157	     -3.14660047	     -0.25848206	      0.77244763	      0.92177095	      0.48152549	     22.78095823	      0.45375277	    -10.87979783	     22.94323305	     22.94323305	      5.87113344	     -8.81034869	     -2.54608677	      4.08070242	     -7.68695054	     -6.86500761	     34.41235454	     34.41235454	     13.11921204	    -12.35325213	    -11.83729941	     -8.47071947	      6.11724339	     -0.22203514	     -3.13421195	    -14.04138009	     -6.91970182	     47.35190962	     45.57028346	      0.00000000	      0.00000000	     12.95745759	    -13.89282379	    -11.65387339	     47.86442387	     46.82600148	      0.00000000	      0.00000000
      9.64671429	     -4.08167012	     -3.28447353	      0.17194588	      0.77292179	      0.92231744	      0.48404539	     22.08131432	      0.62692283	    -11.46022402	     22.84615110	     22.84615110	      6.31529916	     -8.50998089	     -2.88325649	      6.11563872	     -8.27745199	     -5.69281851	     38.72053237	     38.72053237	     11.19880288	    -14.19082156	    -12.21656982	     -8.51590153	      6.25512584	     -0.19515744	     -2.18203986	    -14.46470060	     -7.08957878	     49.57712786	     45.50460231	      0.00000000	      0.00000000	     12.31065964	    -13.46138673	    -10.86576754	     45.24872238	     46.72542356	      0.00000000	      0.00000000
      9.65978571	     -3.97923768	     -3.48094422	      0.59143529	      0.77314337	      0.92270941	      0.48653877	     21.41642911	      0.85408064	    -12.11924428	     22.77891507	     22.77891507	      6.72349250	     -8.16484902	     -3.14720735	      8.33618618	     -8.90972785	     -4.55292066	     43.21148917	     43.21148917	      9.63336950	    -15.39946180	    -11.35549703	     -8.61297772	      6.45607792	      0.02125419	     -1.32116884	    -15.02521769	     -7.09304688	     52.04196853	     45.42554576	      0.00000000	      0.00000000	     11.79543148	    -12.94577645	    -10.05553507	     42.47036870	     46.62132378	      0.00000000	      0.00000000
      9.67285714	     -3.87900248	     -3.69542949	      0.98424696	      0.77316242	      0.92298996	      0.48894716	     20.78281148	      1.09595938	    -12.78024901	     22.73258232	     22.73258232	      7.16284852	     -7.72890633	     -3.32372920	     10.67018705	     -9.47455086	     -3.39614022	     47.69314283	     47.69314283	      8.60030504	    -16.06157227	     -8.90286519	     -8.71705827	      6.66171969	      0.33367659	     -0.47383636	    -15.67294181	     -7.07555430	     54.63889292	     45.34615491	      0.00000000	      0.00000000	     11.31523035	    -12.40731051	     -9.18071891	     39.73946629	     46.51044479	      0.00000000	      0.00000000
      9.68592857	     -3.81752646	     -3.94868661	      1.34544295	      0.77298900	      0.92311735	      0.49141031	     20.21022756	      1.41065634	    -13.36252058	     22.67710016	     22.67710016	      7.57535508	     -7.38634401	     -3.46313473	     13.00218250	    -10.07102103	     -2.37700841	     51.75932214	     51.75932214	      7.18775175	    -16.66441136	     -7.54417551	     -8.77239237	      6.86551304	      0.16321541	      1.19408764	    -15.99211511	     -7.28845084	     56.32037533	     45.30766084	      0.00000000	      0.00000000	     10.08448446	    -12.07101378	     -8.80167899	     38.15642135	     46.44528335	      0.00000000	      0.00000000
